# xmcd
#
# Track frame offsets: 
#        150
#        15983
#        47912
#        67069
#        105515
#        151693
#        192631
#        231493
#        278597
#        339071
#
# Disc length: 4782 seconds
#
# Revision: 2
# Processed by: cddbd v1.5.2PL0 Copyright (c) Steve Scherf et al.
# Submitted via: ExactAudioCopyFreeDBPlugin 1.0
#
DISCID=7f12ac0a
DTITLE=Jürgen Domian - Der Gedankenleser CD2
DYEAR=2010
DGENRE=Lesung
TTITLE0=11
TTITLE1=12
TTITLE2=13
TTITLE3=14
TTITLE4=15
TTITLE5=16
TTITLE6=17
TTITLE7=18
TTITLE8=19
TTITLE9=20
EXTD=
EXTT0=
EXTT1=
EXTT2=
EXTT3=
EXTT4=
EXTT5=
EXTT6=
EXTT7=
EXTT8=
EXTT9=
PLAYORDER=
